<svg width="226" height="36" viewBox="0 0 226 36" fill="none" xmlns="http://www.w3.org/2000/svg">
<path d="M210.729 27.6924V13.8739H213.193L213.387 16.2832C213.83 15.4339 214.458 14.7693 215.27 14.2893C216.082 13.7909 217.024 13.5416 218.095 13.5416C219.202 13.5416 220.153 13.7724 220.947 14.2339C221.741 14.677 222.35 15.3509 222.775 16.2555C223.218 17.1416 223.439 18.2678 223.439 19.6339V27.6924H220.67V19.9109C220.67 18.6001 220.384 17.6032 219.812 16.9201C219.258 16.237 218.436 15.8955 217.347 15.8955C216.609 15.8955 215.944 16.0801 215.353 16.4493C214.781 16.8001 214.329 17.3078 213.996 17.9724C213.664 18.637 213.498 19.4585 213.498 20.437V27.6924H210.729Z" fill="black" fill-opacity="0.5"/>
<path d="M201.358 34.117C200.084 34.117 198.958 33.9509 197.98 33.6186C197.02 33.3047 196.272 32.8155 195.737 32.1509C195.201 31.4862 194.934 30.6739 194.934 29.7139C194.934 29.2155 195.044 28.717 195.266 28.2185C195.487 27.7201 195.847 27.2401 196.346 26.7786C196.844 26.317 197.509 25.9016 198.34 25.5324L199.863 26.7509C198.958 27.1201 198.34 27.5447 198.007 28.0247C197.694 28.5232 197.537 28.9939 197.537 29.437C197.537 29.9909 197.703 30.4524 198.035 30.8216C198.367 31.1909 198.82 31.4678 199.392 31.6524C199.964 31.837 200.62 31.9293 201.358 31.9293C202.06 31.9293 202.669 31.8278 203.186 31.6247C203.721 31.4216 204.137 31.1355 204.432 30.7662C204.727 30.397 204.875 29.9632 204.875 29.4647C204.875 28.8924 204.654 28.4032 204.211 27.997C203.786 27.6093 202.955 27.3786 201.718 27.3047C200.684 27.2309 199.798 27.1293 199.06 27.0001C198.34 26.8709 197.721 26.7139 197.204 26.5293C196.706 26.3447 196.281 26.1416 195.931 25.9201C195.598 25.6801 195.312 25.4401 195.072 25.2001V24.5632L197.841 21.7386L200.029 22.4862L197.066 25.3109L197.647 24.0647C197.851 24.2124 198.044 24.3416 198.229 24.4524C198.414 24.5632 198.663 24.6647 198.977 24.757C199.291 24.8493 199.706 24.9324 200.223 25.0062C200.758 25.0801 201.46 25.1539 202.327 25.2278C203.564 25.3201 204.561 25.5416 205.318 25.8924C206.094 26.2432 206.657 26.7139 207.007 27.3047C207.358 27.877 207.534 28.5693 207.534 29.3816C207.534 30.1755 207.312 30.9324 206.869 31.6524C206.426 32.3724 205.752 32.9632 204.847 33.4247C203.943 33.8862 202.78 34.117 201.358 34.117ZM201.331 23.4278C200.167 23.4278 199.171 23.2062 198.34 22.7632C197.527 22.3201 196.9 21.7293 196.457 20.9909C196.032 20.2339 195.82 19.4032 195.82 18.4986C195.82 17.5755 196.032 16.7447 196.457 16.0062C196.9 15.2678 197.527 14.677 198.34 14.2339C199.171 13.7724 200.167 13.5416 201.331 13.5416C202.494 13.5416 203.481 13.7724 204.294 14.2339C205.124 14.677 205.752 15.2678 206.177 16.0062C206.62 16.7447 206.841 17.5755 206.841 18.4986C206.841 19.4032 206.62 20.2339 206.177 20.9909C205.752 21.7293 205.124 22.3201 204.294 22.7632C203.481 23.2062 202.494 23.4278 201.331 23.4278ZM201.331 21.2124C202.235 21.2124 202.955 20.9816 203.491 20.5201C204.026 20.0586 204.294 19.3847 204.294 18.4986C204.294 17.6124 204.026 16.9386 203.491 16.477C202.955 16.0155 202.235 15.7847 201.331 15.7847C200.444 15.7847 199.724 16.0155 199.171 16.477C198.617 16.9386 198.34 17.6124 198.34 18.4986C198.34 19.3847 198.617 20.0586 199.171 20.5201C199.724 20.9816 200.444 21.2124 201.331 21.2124ZM203.574 16.0616L202.909 13.8739H208.641V15.757L203.574 16.0616Z" fill="black" fill-opacity="0.5"/>
<path d="M189.674 27.6922V13.8738H192.443V27.6922H189.674ZM191.058 11.1876C190.541 11.1876 190.107 11.0214 189.757 10.6891C189.406 10.3568 189.23 9.93221 189.23 9.41529C189.23 8.91683 189.406 8.51067 189.757 8.19683C190.107 7.86452 190.541 7.69836 191.058 7.69836C191.575 7.69836 192.009 7.86452 192.36 8.19683C192.71 8.51067 192.886 8.91683 192.886 9.41529C192.886 9.93221 192.71 10.3568 192.36 10.6891C192.009 11.0214 191.575 11.1876 191.058 11.1876Z" fill="black" fill-opacity="0.5"/>
<path d="M181.456 28.0247C180.312 28.0247 179.287 27.8309 178.382 27.4432C177.496 27.0555 176.786 26.5109 176.25 25.8093C175.733 25.1078 175.419 24.2955 175.309 23.3724H178.106C178.216 23.797 178.41 24.1939 178.687 24.5632C178.964 24.9324 179.333 25.2278 179.795 25.4493C180.256 25.6709 180.81 25.7816 181.456 25.7816C182.066 25.7816 182.564 25.6986 182.952 25.5324C183.339 25.3478 183.626 25.1078 183.81 24.8124C183.995 24.517 184.087 24.1939 184.087 23.8432C184.087 23.3447 183.958 22.9662 183.699 22.7078C183.459 22.4493 183.09 22.2462 182.592 22.0986C182.112 21.9324 181.53 21.7755 180.847 21.6278C180.256 21.517 179.666 21.3693 179.075 21.1847C178.484 21.0001 177.949 20.7601 177.469 20.4647C176.989 20.1693 176.601 19.8001 176.306 19.357C176.01 18.9139 175.862 18.3693 175.862 17.7232C175.862 16.9109 176.075 16.1909 176.499 15.5632C176.924 14.9355 177.524 14.4462 178.299 14.0955C179.075 13.7262 179.998 13.5416 181.069 13.5416C182.601 13.5416 183.838 13.9109 184.779 14.6493C185.739 15.3693 186.293 16.4124 186.441 17.7786H183.782C183.69 17.1509 183.404 16.6616 182.924 16.3109C182.462 15.9601 181.844 15.7847 181.069 15.7847C180.275 15.7847 179.666 15.9416 179.241 16.2555C178.835 16.5693 178.632 16.9847 178.632 17.5016C178.632 17.8339 178.752 18.1293 178.992 18.3878C179.25 18.6278 179.61 18.8401 180.072 19.0247C180.552 19.1909 181.115 19.3385 181.761 19.4678C182.702 19.6709 183.552 19.9109 184.309 20.1878C185.084 20.4462 185.712 20.8432 186.192 21.3785C186.672 21.8955 186.912 22.6524 186.912 23.6493C186.93 24.517 186.709 25.2832 186.247 25.9478C185.804 26.5939 185.176 27.1016 184.364 27.4709C183.552 27.8401 182.582 28.0247 181.456 28.0247Z" fill="black" fill-opacity="0.5"/>
<path d="M167.053 28.0247C165.706 28.0247 164.515 27.7293 163.481 27.1386C162.447 26.5293 161.635 25.6893 161.044 24.6186C160.472 23.5293 160.186 22.2647 160.186 20.8247C160.186 19.3662 160.472 18.0924 161.044 17.0032C161.616 15.9139 162.419 15.0647 163.453 14.4555C164.506 13.8462 165.715 13.5416 167.081 13.5416C168.447 13.5416 169.619 13.8462 170.598 14.4555C171.595 15.0462 172.352 15.8401 172.869 16.837C173.404 17.8339 173.672 18.9324 173.672 20.1324C173.672 20.317 173.672 20.5201 173.672 20.7416C173.672 20.9447 173.662 21.1755 173.644 21.4339H162.207V19.4678H170.93C170.875 18.3416 170.487 17.4555 169.767 16.8093C169.047 16.1632 168.142 15.8401 167.053 15.8401C166.315 15.8401 165.622 16.0062 164.976 16.3385C164.349 16.6709 163.841 17.1601 163.453 17.8062C163.084 18.4524 162.899 19.2647 162.899 20.2432V21.0462C162.899 22.0616 163.084 22.9201 163.453 23.6216C163.841 24.3047 164.349 24.8309 164.976 25.2001C165.604 25.5509 166.287 25.7262 167.026 25.7262C167.912 25.7262 168.641 25.5324 169.213 25.1447C169.804 24.7385 170.238 24.2032 170.515 23.5386H173.284C173.044 24.3878 172.638 25.1539 172.066 25.837C171.493 26.5016 170.782 27.037 169.933 27.4432C169.102 27.8309 168.142 28.0247 167.053 28.0247Z" fill="black" fill-opacity="0.5"/>
<path d="M150.003 28.0246C148.674 28.0246 147.492 27.7107 146.458 27.083C145.443 26.4553 144.649 25.5969 144.077 24.5076C143.523 23.3999 143.246 22.1538 143.246 20.7692C143.246 19.3661 143.523 18.1199 144.077 17.0307C144.649 15.9415 145.452 15.0922 146.486 14.483C147.52 13.8553 148.701 13.5415 150.031 13.5415C151.12 13.5415 152.08 13.763 152.911 14.2061C153.76 14.6307 154.415 15.2307 154.877 16.0061V7.75378H157.646V27.6922H155.154L154.877 25.5322C154.581 25.9569 154.212 26.363 153.769 26.7507C153.326 27.1199 152.791 27.4246 152.163 27.6646C151.535 27.9046 150.815 28.0246 150.003 28.0246ZM150.446 25.6153C151.314 25.6153 152.08 25.4122 152.745 25.0061C153.409 24.5999 153.926 24.0369 154.295 23.3169C154.665 22.5784 154.849 21.7292 154.849 20.7692C154.849 19.8092 154.665 18.9692 154.295 18.2492C153.926 17.5292 153.409 16.9661 152.745 16.5599C152.08 16.1538 151.314 15.9507 150.446 15.9507C149.597 15.9507 148.84 16.1538 148.175 16.5599C147.511 16.9661 146.994 17.5292 146.625 18.2492C146.255 18.9692 146.071 19.8092 146.071 20.7692C146.071 21.7292 146.255 22.5784 146.625 23.3169C146.994 24.0369 147.511 24.5999 148.175 25.0061C148.84 25.4122 149.597 25.6153 150.446 25.6153Z" fill="black" fill-opacity="0.5"/>
<path d="M139.648 27.8306C139.113 27.8306 138.67 27.6645 138.319 27.3322C137.986 26.9814 137.82 26.566 137.82 26.086C137.82 25.5876 137.986 25.1722 138.319 24.8399C138.67 24.4891 139.113 24.3137 139.648 24.3137C140.183 24.3137 140.617 24.4891 140.95 24.8399C141.282 25.1722 141.448 25.5876 141.448 26.086C141.448 26.566 141.282 26.9814 140.95 27.3322C140.617 27.6645 140.183 27.8306 139.648 27.8306Z" fill="black" fill-opacity="0.5"/>
<path d="M129.565 28.0247C128.217 28.0247 127.026 27.7293 125.993 27.1386C124.959 26.5293 124.146 25.6893 123.556 24.6186C122.983 23.5293 122.697 22.2647 122.697 20.8247C122.697 19.3662 122.983 18.0924 123.556 17.0032C124.128 15.9139 124.931 15.0647 125.965 14.4555C127.017 13.8462 128.226 13.5416 129.593 13.5416C130.959 13.5416 132.131 13.8462 133.11 14.4555C134.106 15.0462 134.863 15.8401 135.38 16.837C135.916 17.8339 136.183 18.9324 136.183 20.1324C136.183 20.317 136.183 20.5201 136.183 20.7416C136.183 20.9447 136.174 21.1755 136.156 21.4339H124.719V19.4678H133.442C133.386 18.3416 132.999 17.4555 132.279 16.8093C131.559 16.1632 130.654 15.8401 129.565 15.8401C128.826 15.8401 128.134 16.0062 127.488 16.3385C126.86 16.6709 126.353 17.1601 125.965 17.8062C125.596 18.4524 125.411 19.2647 125.411 20.2432V21.0462C125.411 22.0616 125.596 22.9201 125.965 23.6216C126.353 24.3047 126.86 24.8309 127.488 25.2001C128.116 25.5509 128.799 25.7262 129.537 25.7262C130.423 25.7262 131.153 25.5324 131.725 25.1447C132.316 24.7385 132.75 24.2032 133.026 23.5386H135.796C135.556 24.3878 135.15 25.1539 134.577 25.837C134.005 26.5016 133.294 27.037 132.445 27.4432C131.614 27.8309 130.654 28.0247 129.565 28.0247Z" fill="black"/>
<path d="M114.25 28.0247C112.902 28.0247 111.702 27.7201 110.65 27.1109C109.598 26.5016 108.767 25.6524 108.158 24.5632C107.567 23.4739 107.271 22.2185 107.271 20.797C107.271 19.357 107.567 18.0924 108.158 17.0032C108.767 15.9139 109.598 15.0647 110.65 14.4555C111.702 13.8462 112.902 13.5416 114.25 13.5416C115.948 13.5416 117.361 13.9847 118.487 14.8709C119.631 15.7386 120.361 16.9201 120.675 18.4155H117.795C117.61 17.6216 117.185 17.0124 116.521 16.5878C115.875 16.1447 115.108 15.9232 114.222 15.9232C113.484 15.9232 112.801 16.1078 112.173 16.477C111.545 16.8462 111.038 17.3909 110.65 18.1109C110.281 18.8309 110.096 19.717 110.096 20.7693C110.096 21.5632 110.207 22.2647 110.428 22.8739C110.65 23.4832 110.945 24.0001 111.315 24.4247C111.702 24.8309 112.145 25.1447 112.644 25.3662C113.142 25.5693 113.668 25.6709 114.222 25.6709C114.831 25.6709 115.376 25.5786 115.856 25.3939C116.336 25.1909 116.742 24.9047 117.075 24.5355C117.425 24.1478 117.665 23.6862 117.795 23.1509H120.675C120.361 24.6093 119.631 25.7909 118.487 26.6955C117.342 27.5816 115.93 28.0247 114.25 28.0247Z" fill="black"/>
<path d="M92.2637 27.6924V13.8739H94.7283L94.9221 16.2832C95.3652 15.4339 95.9929 14.7693 96.8052 14.2893C97.6175 13.7909 98.5591 13.5416 99.6298 13.5416C100.738 13.5416 101.688 13.7724 102.482 14.2339C103.276 14.677 103.885 15.3509 104.31 16.2555C104.753 17.1416 104.974 18.2678 104.974 19.6339V27.6924H102.205V19.9109C102.205 18.6001 101.919 17.6032 101.347 16.9201C100.793 16.237 99.9714 15.8955 98.8821 15.8955C98.1437 15.8955 97.4791 16.0801 96.8883 16.4493C96.316 16.8001 95.8637 17.3078 95.5314 17.9724C95.1991 18.637 95.0329 19.4585 95.0329 20.437V27.6924H92.2637Z" fill="black"/>
<path d="M82.193 28.0247C81.0484 28.0247 80.0977 27.8309 79.3407 27.4432C78.5838 27.0555 78.0207 26.5386 77.6515 25.8924C77.2823 25.2462 77.0977 24.5447 77.0977 23.7878C77.0977 22.8832 77.3284 22.1078 77.79 21.4616C78.27 20.8155 78.953 20.317 79.8392 19.9662C80.7253 19.6155 81.7961 19.4401 83.0515 19.4401H86.6792C86.6792 18.6278 86.55 17.9632 86.2915 17.4462C86.0515 16.9109 85.6915 16.5139 85.2115 16.2555C84.75 15.9785 84.1684 15.8401 83.4669 15.8401C82.6361 15.8401 81.9161 16.0432 81.3069 16.4493C80.6977 16.8555 80.3192 17.4555 80.1715 18.2493H77.4023C77.513 17.2524 77.8453 16.4032 78.3992 15.7016C78.9715 15.0001 79.7007 14.4647 80.5869 14.0955C81.4915 13.7262 82.4515 13.5416 83.4669 13.5416C84.7592 13.5416 85.8484 13.7724 86.7346 14.2339C87.6207 14.6955 88.2946 15.3509 88.7561 16.2001C89.2177 17.0309 89.4484 18.0185 89.4484 19.1632V27.6924H87.0392L86.8177 25.3385C86.633 25.7078 86.393 26.0585 86.0977 26.3909C85.8207 26.7232 85.4884 27.0093 85.1007 27.2493C84.7315 27.4893 84.2977 27.6739 83.7992 27.8032C83.3192 27.9509 82.7838 28.0247 82.193 28.0247ZM82.7192 25.7816C83.31 25.7816 83.8454 25.6616 84.3254 25.4216C84.8054 25.1816 85.2115 24.8585 85.5438 24.4524C85.8946 24.0278 86.153 23.557 86.3192 23.0401C86.5038 22.5232 86.6054 21.9878 86.6238 21.4339V21.3785H83.3284C82.5346 21.3785 81.8884 21.4801 81.39 21.6832C80.8915 21.8678 80.5315 22.1262 80.31 22.4585C80.1069 22.7909 80.0053 23.1785 80.0053 23.6216C80.0053 24.0647 80.1069 24.4524 80.31 24.7847C80.5315 25.0985 80.8453 25.3478 81.2515 25.5324C81.6577 25.6986 82.1469 25.7816 82.7192 25.7816Z" fill="black"/>
<path d="M72.85 27.6924C71.9638 27.6924 71.1977 27.5539 70.5515 27.277C69.9054 27 69.4069 26.5385 69.0561 25.8924C68.7054 25.2462 68.53 24.3693 68.53 23.2616V16.2H66.1484V13.8739H68.53L68.89 10.4124H71.2992V13.8739H75.2315V16.2H71.2992V23.2893C71.2992 24.0831 71.4654 24.6277 71.7977 24.9231C72.13 25.2 72.7023 25.3385 73.5146 25.3385H75.0931V27.6924H72.85Z" fill="black"/>
<path d="M59.6907 28.0247C58.546 28.0247 57.5214 27.8309 56.6168 27.4432C55.7307 27.0555 55.0199 26.5109 54.4845 25.8093C53.9676 25.1078 53.6537 24.2955 53.543 23.3724H56.3399C56.4507 23.797 56.6445 24.1939 56.9214 24.5632C57.1984 24.9324 57.5676 25.2278 58.0291 25.4493C58.4907 25.6709 59.0445 25.7816 59.6907 25.7816C60.2999 25.7816 60.7984 25.6986 61.186 25.5324C61.5737 25.3478 61.8599 25.1078 62.0445 24.8124C62.2291 24.517 62.3214 24.1939 62.3214 23.8432C62.3214 23.3447 62.1922 22.9662 61.9337 22.7078C61.6937 22.4493 61.3245 22.2462 60.826 22.0986C60.346 21.9324 59.7645 21.7755 59.0814 21.6278C58.4907 21.517 57.8999 21.3693 57.3091 21.1847C56.7184 21.0001 56.183 20.7601 55.703 20.4647C55.223 20.1693 54.8353 19.8001 54.5399 19.357C54.2445 18.9139 54.0968 18.3693 54.0968 17.7232C54.0968 16.9109 54.3091 16.1909 54.7337 15.5632C55.1584 14.9355 55.7584 14.4462 56.5337 14.0955C57.3091 13.7262 58.2322 13.5416 59.303 13.5416C60.8353 13.5416 62.0722 13.9109 63.0137 14.6493C63.9737 15.3693 64.5276 16.4124 64.6753 17.7786H62.0168C61.9245 17.1509 61.6384 16.6616 61.1584 16.3109C60.6968 15.9601 60.0784 15.7847 59.303 15.7847C58.5091 15.7847 57.8999 15.9416 57.4753 16.2555C57.0691 16.5693 56.866 16.9847 56.866 17.5016C56.866 17.8339 56.986 18.1293 57.226 18.3878C57.4845 18.6278 57.8445 18.8401 58.306 19.0247C58.786 19.1909 59.3491 19.3385 59.9953 19.4678C60.9368 19.6709 61.786 19.9109 62.543 20.1878C63.3184 20.4462 63.946 20.8432 64.426 21.3785C64.906 21.8955 65.146 22.6524 65.146 23.6493C65.1645 24.517 64.943 25.2832 64.4814 25.9478C64.0384 26.5939 63.4107 27.1016 62.5984 27.4709C61.786 27.8401 60.8168 28.0247 59.6907 28.0247Z" fill="black"/>
<path d="M38.7559 27.6924V13.8739H41.2205L41.4143 16.2832C41.8574 15.4339 42.4851 14.7693 43.2974 14.2893C44.1097 13.7909 45.0512 13.5416 46.122 13.5416C47.2297 13.5416 48.1805 13.7724 48.9743 14.2339C49.7682 14.677 50.3774 15.3509 50.802 16.2555C51.2451 17.1416 51.4666 18.2678 51.4666 19.6339V27.6924H48.6974V19.9109C48.6974 18.6001 48.4112 17.6032 47.8389 16.9201C47.2851 16.237 46.4636 15.8955 45.3743 15.8955C44.6359 15.8955 43.9712 16.0801 43.3805 16.4493C42.8082 16.8001 42.3559 17.3078 42.0235 17.9724C41.6912 18.637 41.5251 19.4585 41.5251 20.437V27.6924H38.7559Z" fill="black"/>
<path d="M32.7185 27.6922V13.8738H35.4877V27.6922H32.7185ZM34.1031 11.1876C33.5862 11.1876 33.1523 11.0214 32.8015 10.6891C32.4508 10.3568 32.2754 9.93221 32.2754 9.41529C32.2754 8.91683 32.4508 8.51067 32.8015 8.19683C33.1523 7.86452 33.5862 7.69836 34.1031 7.69836C34.62 7.69836 35.0539 7.86452 35.4046 8.19683C35.7554 8.51067 35.9308 8.91683 35.9308 9.41529C35.9308 9.93221 35.7554 10.3568 35.4046 10.6891C35.0539 11.0214 34.62 11.1876 34.1031 11.1876Z" fill="black"/>
<path d="M12.3378 28.8553C11.9224 26.4738 10.2332 23.483 7.02089 21.0738C5.44243 19.883 3.83627 19.1076 2.25781 18.7753V17.6123C5.38704 16.8646 8.46089 14.76 10.427 11.9076C11.424 10.4676 12.0609 9.05534 12.3378 7.58765H13.5009C13.9717 10.3846 16.1317 13.4861 19.067 15.563C20.507 16.5876 22.0024 17.28 23.5255 17.6123V18.7753C20.4517 19.4123 16.8794 22.1538 15.107 24.9507C14.2209 26.363 13.6947 27.6646 13.5009 28.8553H12.3378Z" fill="black"/>
</svg>
